<?xml version="1.0" encoding="iso-8859-1"?>
<!-- Generator: Adobe Illustrator 19.0.0, SVG Export Plug-In . SVG Version: 6.00 Build 0)  -->
<svg version="1.1" id="Capa_1" xmlns="http://www.w3.org/2000/svg" xmlns:xlink="http://www.w3.org/1999/xlink" x="0px" y="0px"
	 viewBox="0 0 512 512" style="enable-background:new 0 0 512 512;" xml:space="preserve">
<path style="fill:#73BCFF;" d="M505.101,198.699l-47.401,214.2C410.9,472.299,337.599,512,256,512C115.3,512,0,396.7,0,256
	c0-36,8.5-70.201,22.301-101.4l47.1-30l-15-24.3C101.201,40,174.101,0,256,0C376.901,0,479.001,85.6,505.101,198.699z"/>
<path style="fill:#1B9DED;" d="M505.101,198.699l-47.401,214.2C410.9,472.299,337.599,512,256,512V0
	C376.901,0,479.001,85.6,505.101,198.699z"/>
<path style="fill:#77DD00;" d="M505.242,198.585c-7.917,2.346-14.478,5.425-19.081,9.836c-7.397,7.09-9.302,15.352-9.873,22.837
	c-4.995-1.274-10.752-4.16-16.772-7.163c-10.327-5.156-22.031-11.016-35.01-11.016c-18.428,0-52.749,0-52.749,33.867
	c0,3.926,0,3.926-4.058,6.533c-6.182,3.97-19.043,12.231-14.517,34.233c3.208,15.645,9.521,26.162,19.307,32.153
	c14.15,8.628,29.912,4.263,41.44,1.055c3.955-1.099,8.423-2.344,10.576-2.344c2.622,0,5.024,7.983,6.592,14.678
	c6.782,29.048,2.271,43.652-0.161,51.504c-1.655,5.391-4.175,13.535,1.626,20.977c5.751,7.388,14.242,7.597,25.131,7.037
	C491.591,369.474,512,315.128,512,256C512,236.234,509.517,217.07,505.242,198.585z"/>
<path style="fill:#89F900;" d="M372.201,107.199c-28.5,18.9-44.2,21.899-50.801,22.5l-30,11.4c-2.699,0-3.6,0.3-3.6,0.3
	c-0.899,4.2,2.1,18.6-11.4,28.5c0.601,17.1-7.8,26.1-20.4,30.599c-9.901,3.9-22.8,4.801-36,4.801c-2.401,3.6-6,8.099-12.299,14.399
	c-17.1,17.1-35.7,7.8-45.601,3.001c-3.3-1.501-8.399-3.9-9.901-3.9c-5.999,5.7-3.9,12.299-2.699,15
	c2.999,7.798,12.599,17.098,28.5,17.098c16.8,0,22.5-4.199,28.799-8.699C213.1,237.7,220.901,232,234.699,232
	c9.901,0,16.501,4.799,21.301,10.199c2.701,3.3,4.799,6.899,6.599,9.901c9.001,14.7,15.3,17.999,32.401,21.899
	c10.501,2.1,30.3,6.601,30.3,29.7c0,33.9-23.699,58.2-41.1,76.201c-6,5.999-14.7,15-15.601,18.6v17.999
	c0.3,10.501-4.799,21-12.599,27.599c-8.101,6.901-18.9,9.6-29.099,3.9c-12.001-6.899-26.102-25.199-26.102-106.8
	c-18.6-9.3-37.798-19.799-37.798-37.5v-18.9c-3.301-3.3-35.7-18.6-48.001-24.3c-11.999-5.7-36-5.999-44.099-26.4
	c-6-15-0.3-34.499,18.9-65.4c3.3-5.7,2.999-8.099,2.999-8.099s-7.8-8.701-53.399-6h-17.1c8.399-19.501,19.499-37.8,32.1-54.3
	c5.999-0.3,12.299-0.601,18.3-0.601c18.9,0,54,0,108.3-17.999c34.2-11.4,55.8-16.201,75-18.001c14.099-1.5,27.001-1.5,43.2-1.5
	H361.1c10.201,0.901,18.9,8.401,21.301,18.6C385.101,90.7,380.9,101.499,372.201,107.199z"/>
<g>
	<path style="fill:#77DD00;" d="M325.3,303.699c0,33.9-23.699,58.2-41.1,76.201c-6,5.999-14.7,15-15.601,18.6v17.999
		c0.3,10.501-4.799,21-12.599,27.599V242.199c2.701,3.3,4.799,6.899,6.599,9.901c9.001,14.7,15.3,17.999,32.401,21.899
		C305.501,276.099,325.3,280.6,325.3,303.699z"/>
	<path style="fill:#77DD00;" d="M372.201,107.199c-28.5,18.9-44.2,21.899-50.801,22.5l-30,11.4c-2.699,0-3.6,0.3-3.6,0.3
		c-0.899,4.2,2.1,18.6-11.4,28.5c0.601,17.1-7.8,26.1-20.4,30.599v-136.8c14.099-1.5,27.001-1.5,43.2-1.5h61.899
		c10.201,0.901,18.9,8.401,21.301,18.6C385.101,90.7,380.9,101.499,372.201,107.199z"/>
</g>
<g>
</g>
<g>
</g>
<g>
</g>
<g>
</g>
<g>
</g>
<g>
</g>
<g>
</g>
<g>
</g>
<g>
</g>
<g>
</g>
<g>
</g>
<g>
</g>
<g>
</g>
<g>
</g>
<g>
</g>
</svg>
